<svg width="16" height="12" viewBox="0 0 16 12" fill="none" xmlns="http://www.w3.org/2000/svg">
<path fill-rule="evenodd" clip-rule="evenodd" d="M0 0H16V12H0V0Z" fill="#2E42A5"/>
<g clip-path="url(#clip0_5099_10049)">
<rect width="9" height="7" fill="#2E42A5"/>
<path d="M-1.00195 6.49981L0.978522 7.36841L9.04512 0.944269L10.0898 -0.346497L7.97194 -0.636808L4.68177 2.13154L2.03352 3.99675L-1.00195 6.49981Z" fill="#F7FCFF"/>
<path d="M-0.730469 7.10849L0.278492 7.61255L9.715 -0.466309H8.2983L-0.730469 7.10849Z" fill="#F50100"/>
<path d="M10.002 6.49981L8.02148 7.36841L-0.0451202 0.944269L-1.08978 -0.346497L1.02806 -0.636808L4.31823 2.13154L6.96648 3.99675L10.002 6.49981Z" fill="#F7FCFF"/>
<path d="M9.93359 6.93661L8.92463 7.44067L4.90647 3.9817L3.71517 3.59523L-1.19108 -0.342034H0.22562L5.12911 3.50178L6.43159 3.96519L9.93359 6.93661Z" fill="#F50100"/>
<path fill-rule="evenodd" clip-rule="evenodd" d="M4.99226 0H3.99226V3H0V4H3.99226V7H4.99226V4H9V3H4.99226V0Z" fill="#F50100"/>
<path fill-rule="evenodd" clip-rule="evenodd" d="M3.24226 -0.75H5.74226V2.25H9.75V4.75H5.74226V7.75H3.24226V4.75H-0.75V2.25H3.24226V-0.75ZM3.99226 3H0V4H3.99226V7H4.99226V4H9V3H4.99226V0H3.99226V3Z" fill="#F7FCFF"/>
</g>
<g clip-path="url(#clip1_5099_10049)">
<path d="M4.40768 9.83417L3.81725 10.3798L3.87572 9.57799L3.08099 9.45658L3.74433 9.00237L3.34376 8.30532L4.11246 8.54075L4.40768 7.79297L4.70289 8.54075L5.47159 8.30532L5.07102 9.00237L5.73436 9.45658L4.93963 9.57799L4.9981 10.3798L4.40768 9.83417Z" fill="#F7FCFF"/>
<path d="M10.7763 6.06905L10.3827 6.43281L10.4217 5.89827L9.89189 5.81732L10.3341 5.51452L10.0671 5.04982L10.5795 5.20677L10.7763 4.70825L10.9732 5.20677L11.4856 5.04982L11.2186 5.51452L11.6608 5.81732L11.131 5.89827L11.17 6.43281L10.7763 6.06905Z" fill="#F7FCFF"/>
<path d="M11.7138 2.37667L11.3202 2.74043L11.3592 2.20588L10.8294 2.12494L11.2716 1.82213L11.0046 1.35744L11.517 1.51439L11.7138 1.01587L11.9107 1.51439L12.4231 1.35744L12.1561 1.82213L12.5983 2.12494L12.0685 2.20588L12.1075 2.74043L11.7138 2.37667Z" fill="#F7FCFF"/>
<path d="M14.0615 4.22286L13.6679 4.58662L13.7069 4.05208L13.177 3.97113L13.6193 3.66833L13.3522 3.20363L13.8647 3.36058L14.0615 2.86206L14.2583 3.36058L14.7708 3.20363L14.5037 3.66833L14.946 3.97113L14.4161 4.05208L14.4551 4.58662L14.0615 4.22286Z" fill="#F7FCFF"/>
<path d="M12.1845 9.53048L11.7909 9.89424L11.8299 9.35969L11.3001 9.27875L11.7423 8.97594L11.4753 8.51125L11.9877 8.6682L12.1845 8.16968L12.3814 8.6682L12.8938 8.51125L12.6268 8.97594L13.069 9.27875L12.5392 9.35969L12.5782 9.89424L12.1845 9.53048Z" fill="#F7FCFF"/>
<path d="M13.8269 6.6478L13.427 6.85805L13.5033 6.41272L13.1798 6.09734L13.6269 6.03237L13.8269 5.6272L14.0268 6.03237L14.474 6.09734L14.1504 6.41272L14.2268 6.85805L13.8269 6.6478Z" fill="#F7FCFF"/>
</g>
<defs>
<clipPath id="clip0_5099_10049">
<rect width="9" height="7" fill="white"/>
</clipPath>
<clipPath id="clip1_5099_10049">
<rect width="12" height="10" fill="white" transform="translate(3 1)"/>
</clipPath>
</defs>
</svg>
