<svg width="16" height="16" viewBox="0 0 16 16" fill="none" xmlns="http://www.w3.org/2000/svg">
<path d="M13.8867 5.33969L9.52002 1.84635C8.66668 1.16635 7.33335 1.15969 6.48668 1.83969L2.12002 5.33969C1.49335 5.83969 1.11335 6.83969 1.24668 7.62635L2.08668 12.653C2.28002 13.7797 3.32668 14.6664 4.46668 14.6664H11.5333C12.66 14.6664 13.7267 13.7597 13.92 12.6464L14.76 7.61969C14.88 6.83969 14.5 5.83969 13.8867 5.33969ZM8.50002 11.9997C8.50002 12.273 8.27335 12.4997 8.00002 12.4997C7.72668 12.4997 7.50002 12.273 7.50002 11.9997V9.99969C7.50002 9.72635 7.72668 9.49969 8.00002 9.49969C8.27335 9.49969 8.50002 9.72635 8.50002 9.99969V11.9997Z" fill="white"/>
</svg>
