<svg width="141" height="32" viewBox="0 0 141 32" fill="none" xmlns="http://www.w3.org/2000/svg">
<g clip-path="url(#clip0_4625_178)">
<path fill-rule="evenodd" clip-rule="evenodd" d="M9.46842 13.0791C10.7265 15.2368 13.6729 14.6393 15.7917 14.4069C15.5931 14.8052 15.3614 15.2036 15.1296 15.5687C14.7985 16.133 14.5006 16.0335 13.9047 16.0667C12.9115 16.1662 11.8852 16.2326 10.892 16.0667C10.1305 15.9671 9.23667 15.7015 8.8394 15.0044C8.44212 14.3405 8.77318 13.4442 9.46842 13.0791Z" fill="white"/>
<path fill-rule="evenodd" clip-rule="evenodd" d="M17.116 12.1163C17.116 12.1163 14.931 12.3486 13.4081 12.3486C11.8852 12.3486 11.0906 11.552 11.0906 10.4897C11.0906 9.42747 12.0507 8.36523 13.5736 8.36523C15.5931 8.36523 18.3409 9.9254 18.3409 9.9254L17.116 12.1163Z" fill="white"/>
<path fill-rule="evenodd" clip-rule="evenodd" d="M15.6924 15.9664C15.6924 15.9664 18.5727 15.7008 19.5328 15.7008C20.4928 15.7008 22.7441 16.1987 22.7441 18.0908C22.7441 20.3149 18.7051 21.7755 18.7051 21.7755L20.9563 22.373C20.9563 22.373 24.2339 20.5141 24.2339 17.9581C24.2339 15.402 21.9164 14.1738 19.7645 14.1738C17.6126 14.1738 16.5863 14.4062 16.5863 14.4062L15.6924 15.9664Z" fill="white"/>
<path fill-rule="evenodd" clip-rule="evenodd" d="M14.3351 18.2909L13.3088 20.1166C13.3088 20.1166 15.2289 20.515 17.6457 21.4112C17.6457 21.4112 20.5259 20.2494 20.5259 18.8552C20.5259 18.1249 19.7976 17.8926 19.2679 17.8926C18.7382 17.8926 14.3351 18.2909 14.3351 18.2909Z" fill="white"/>
<path fill-rule="evenodd" clip-rule="evenodd" d="M14.5337 22.8381C12.1831 22.0082 7.84621 21.1452 7.84621 22.9709C7.84621 24.7966 12.5473 24.0995 14.5337 22.8381Z" fill="white"/>
<path fill-rule="evenodd" clip-rule="evenodd" d="M15.9242 2.19043C8.3428 2.19043 2.21812 8.33151 2.21812 15.9332C2.21812 23.5348 8.37591 29.7091 15.9573 29.7091C23.5386 29.7091 29.6633 23.5348 29.6633 15.9332C29.6633 8.33151 23.5055 2.19043 15.9242 2.19043ZM18.8375 24.2651L15.6262 23.2029C15.6262 23.2029 6.68748 27.2859 6.68748 22.3398C6.68748 18.9539 12.6466 20.0162 12.6466 20.0162L13.4412 18.3896C13.4412 18.3896 7.05165 19.3523 7.05165 15.4352C7.05165 13.012 9.40221 12.4809 9.40221 12.4809C9.40221 9.32736 14.1033 6.14064 14.1033 6.14064L19.4996 7.93317L20.3273 6.47259L20.9563 6.80454L17.8774 12.0825C17.8774 12.0825 26.154 11.0867 26.154 16.1987C26.1209 21.9083 18.8375 24.2651 18.8375 24.2651Z" fill="white"/>
<path d="M15.9573 32C7.15097 32 0 24.8299 0 16C0 7.17012 7.15097 0 15.9573 0C24.7636 0 31.9145 7.17012 31.9145 16C31.9145 24.8299 24.7636 32 15.9573 32ZM15.9573 1.22822C7.8131 1.22822 1.22494 7.86722 1.22494 16C1.22494 24.1328 7.84621 30.7718 15.9573 30.7718C24.0683 30.7718 30.6896 24.1328 30.6896 16C30.6896 7.86722 24.1014 1.22822 15.9573 1.22822Z" fill="white"/>
<path d="M38.3703 24.6309H41.4161V25.2616H39.1317V26.6558H41.3167V27.2865H39.1317V28.7802H41.4161V29.4109H38.3703V24.6309Z" fill="white"/>
<path d="M42.7403 24.6309H43.4355L45.8854 28.1827H45.9185V24.6309H46.6469V29.4109H45.9516L43.5018 25.8591H43.4686V29.4109H42.7403V24.6309Z" fill="white"/>
<path d="M48.1035 24.6309H48.8319V28.7802H51.05V29.4109H48.1035V24.6309Z" fill="white"/>
<path d="M52.2749 24.6309H53.0033V29.4109H52.2749V24.6309Z" fill="white"/>
<path d="M54.2944 26.9877C54.2944 25.4607 55.1552 24.5312 56.5126 24.5312C57.6382 24.5312 58.3334 25.162 58.532 26.0582V26.1246H57.7706V26.0914C57.572 25.5271 57.1416 25.2283 56.5126 25.2283C55.5856 25.2283 55.0559 25.8922 55.0559 27.0209C55.0559 28.1827 55.6187 28.8798 56.5457 28.8798C57.3071 28.8798 57.8699 28.3819 57.8699 27.6516V27.552H56.6119V26.9545H58.5983V27.4524C58.5983 28.747 57.8368 29.5105 56.5457 29.5105C55.1552 29.5105 54.2944 28.5478 54.2944 26.9877Z" fill="white"/>
<path d="M59.8894 24.6309H60.6177V26.6558H63.0676V24.6309H63.796V29.4109H63.0676V27.2865H60.6177V29.4109H59.8894V24.6309Z" fill="white"/>
<path d="M66.4776 25.2616H65.0209V24.6309H68.6957V25.2616H67.2059V29.4109H66.4776V25.2616Z" fill="white"/>
<path d="M69.8544 24.6309H72.8671V25.2616H70.5828V26.6558H72.7678V27.2865H70.5828V28.7802H72.8671V29.4109H69.8544V24.6309Z" fill="white"/>
<path d="M74.2245 24.6309H74.9197L77.3696 28.1827H77.4027V24.6309H78.131V29.4109H77.4358L74.9859 25.8591H74.9528V29.4109H74.2245V24.6309Z" fill="white"/>
<path d="M82.6997 25.2616H81.243V24.6309H84.9178V25.2616H83.4611V29.4109H82.7328L82.6997 25.2616Z" fill="white"/>
<path d="M86.0765 24.6309H86.8049V26.6558H89.2548V24.6309H89.9831V29.4109H89.2548V27.2865H86.8049V29.4109H86.0765V24.6309Z" fill="white"/>
<path d="M91.4729 24.6309H94.4856V25.2616H92.2012V26.6558H94.3531V27.2865H92.2012V28.7802H94.4856V29.4109H91.4729V24.6309Z" fill="white"/>
<path d="M97.7962 24.6309H98.657L100.213 28.4483H100.246L101.802 24.6309H102.663V29.4109H102.001V25.8923H101.968L100.511 29.4109H99.9481L98.4914 25.8923H98.4583V29.4109H97.7962V24.6309Z" fill="white"/>
<path d="M105.477 24.6309H106.271L107.993 29.4109H107.198L106.768 28.1163H104.947L104.517 29.4109H103.722L105.477 24.6309ZM105.146 27.5188H106.602L105.907 25.4275C105.874 25.4275 105.146 27.5188 105.146 27.5188Z" fill="white"/>
<path d="M109.085 24.6309H110.939C111.933 24.6309 112.529 25.1952 112.529 26.0914C112.529 26.7553 112.164 27.2533 111.602 27.4524L112.661 29.4109H111.8L110.84 27.5852H109.814V29.4109H109.085V24.6309ZM110.873 26.9545C111.436 26.9545 111.767 26.6558 111.767 26.0914C111.767 25.5603 111.403 25.2284 110.84 25.2284H109.814V26.9545H110.873Z" fill="white"/>
<path d="M113.853 24.6309H114.581V26.9213H114.614L116.534 24.6309H117.428L115.607 26.7553L117.561 29.4109H116.634L115.045 27.2533L114.548 27.8176V29.4109H113.82L113.853 24.6309Z" fill="white"/>
<path d="M118.62 24.6309H121.633V25.2616H119.348V26.6558H121.5V27.2865H119.348V28.7802H121.633V29.4109H118.62V24.6309Z" fill="white"/>
<path d="M124.182 25.2616H122.725V24.6309H126.4V25.2616H124.943V29.4109H124.215L124.182 25.2616Z" fill="white"/>
<path d="M38.3703 2.78809H49.4278V5.70925H41.9126V10.257H48.7657V13.0453H41.9126V19.7175H38.3703V2.78809Z" fill="white"/>
<path d="M51.4142 8.03298L54.8241 7.13672V19.7176H51.4142V8.03298Z" fill="white"/>
<path d="M56.8436 8.03298L60.2536 7.13672V19.7176H56.8436V8.03298Z" fill="white"/>
<path d="M75.5818 11.2196C75.5818 5.80877 78.6938 2.52246 83.6267 2.52246C87.6987 2.52246 90.4466 4.87931 91.0094 8.06603L91.0425 8.232H87.5001L87.467 8.09922C86.9042 6.47267 85.5468 5.51001 83.6598 5.51001C80.8788 5.51001 79.1904 7.5681 79.1904 11.1532C79.1904 14.8378 80.9782 16.9955 83.7922 16.9955C86.1096 16.9955 87.6656 15.6345 87.765 13.5432V13.3108H83.8915V10.6552H91.1749V12.6137C91.1749 17.2279 88.394 20.0162 83.6929 20.0162C78.6938 20.0162 75.5818 16.7299 75.5818 11.2196Z" fill="white"/>
<path d="M92.7971 7.13665H96.2071V9.32752H96.2733C96.6375 7.76736 97.6638 6.87109 99.1204 6.87109C99.4846 6.87109 99.8488 6.93748 100.114 7.00387V10.0246C99.8157 9.89184 99.3522 9.82545 98.8887 9.82545C97.2003 9.82545 96.2402 10.8213 96.2402 12.6802V19.7176H92.8302L92.7971 7.13665Z" fill="white"/>
<path d="M100.776 13.4437C100.776 9.36073 103.226 6.9043 106.967 6.9043C110.708 6.9043 113.191 9.36073 113.191 13.4105V13.4437C113.191 17.5599 110.774 19.9831 106.967 19.9831C103.159 19.9831 100.776 17.5267 100.776 13.4437ZM109.714 13.4437C109.714 10.9873 108.622 9.59309 106.967 9.59309C105.311 9.59309 104.252 10.9873 104.252 13.4105V13.4437C104.252 15.9001 105.311 17.2943 107 17.2943C108.688 17.2943 109.714 15.9001 109.714 13.4437Z" fill="white"/>
<path d="M114.747 15.2695V7.16992H118.157V14.5724C118.157 16.2322 118.918 17.1616 120.474 17.1616C122.03 17.1616 122.99 16.033 122.99 14.4064V7.16992H126.4V19.7508H122.99V17.2612H122.924C122.295 18.6886 121.004 19.9832 119.117 19.9832C116.303 19.9832 114.747 18.2239 114.747 15.2695Z" fill="white"/>
<path d="M73.8934 11.618V19.7176H70.4834V12.3151C70.4834 10.6553 69.722 9.72586 68.166 9.72586C66.61 9.72586 65.6499 10.8545 65.6499 12.4811V19.7176H62.24V8.03292L65.6499 7.13665V9.59308H65.7161C66.3451 8.1325 67.6363 6.87109 69.5565 6.87109C72.3043 6.90429 73.8934 8.66362 73.8934 11.618Z" fill="white"/>
<path d="M128.585 7.13665H131.995V9.32753H132.094C132.757 7.80055 134.147 6.87109 135.902 6.87109C139.08 6.87109 141.033 9.32753 141.033 13.4105C141.033 17.4935 139.08 19.9499 135.968 19.9499C134.18 19.9499 132.757 19.0205 132.094 17.5599H132.028V23.8006H128.618V7.13665H128.585ZM137.557 13.4437C137.557 11.1201 136.464 9.72587 134.776 9.72587C133.088 9.72587 131.995 11.1533 131.995 13.4437C131.995 15.701 133.121 17.1284 134.776 17.1284C136.431 17.1284 137.557 15.7342 137.557 13.4437Z" fill="white"/>
<path d="M60.2536 5.70925L56.8436 6.60551V3.68435L60.2536 2.78809V5.70925Z" fill="#50A4DB"/>
<path d="M54.8241 5.70925L51.4142 6.60551V3.68435L54.8241 2.78809V5.70925Z" fill="#50A4DB"/>
</g>
<defs>
<clipPath id="clip0_4625_178">
<rect width="141" height="32" fill="white"/>
</clipPath>
</defs>
</svg>
