<svg width="141" height="32" viewBox="0 0 141 32" fill="none" xmlns="http://www.w3.org/2000/svg">
<g clip-path="url(#clip0_4538_596)">
<path fill-rule="evenodd" clip-rule="evenodd" d="M9.46827 13.0789C10.7263 15.2365 13.6728 14.639 15.7916 14.4067C15.5929 14.805 15.3612 15.2033 15.1295 15.5685C14.7984 16.1328 14.5004 16.0332 13.9045 16.0664C12.9113 16.166 11.885 16.2324 10.8918 16.0664C10.1304 15.9668 9.23652 15.7013 8.83925 15.0042C8.44197 14.3403 8.77303 13.444 9.46827 13.0789Z" fill="#034EA2"/>
<path fill-rule="evenodd" clip-rule="evenodd" d="M17.1162 12.1163C17.1162 12.1163 14.9312 12.3486 13.4083 12.3486C11.8854 12.3486 11.0908 11.552 11.0908 10.4897C11.0908 9.42747 12.0509 8.36523 13.5738 8.36523C15.5933 8.36523 18.3411 9.9254 18.3411 9.9254L17.1162 12.1163Z" fill="#034EA2"/>
<path fill-rule="evenodd" clip-rule="evenodd" d="M15.6924 15.9668C15.6924 15.9668 18.5726 15.7013 19.5327 15.7013C20.4928 15.7013 22.744 16.1992 22.744 18.0913C22.744 20.3154 18.7051 21.776 18.7051 21.776L20.9563 22.3735C20.9563 22.3735 24.2338 20.5146 24.2338 17.9585C24.2338 15.4025 21.9164 14.1743 19.7645 14.1743C17.6126 14.1743 16.5863 14.4067 16.5863 14.4067L15.6924 15.9668Z" fill="#034EA2"/>
<path fill-rule="evenodd" clip-rule="evenodd" d="M14.3349 18.2904L13.3086 20.1162C13.3086 20.1162 15.2288 20.5145 17.6455 21.4108C17.6455 21.4108 20.5258 20.2489 20.5258 18.8547C20.5258 18.1245 19.7974 17.8921 19.2677 17.8921C18.738 17.8921 14.3349 18.2904 14.3349 18.2904Z" fill="#034EA2"/>
<path fill-rule="evenodd" clip-rule="evenodd" d="M14.5337 22.8381C12.1831 22.0082 7.84619 21.1452 7.84619 22.9709C7.84619 24.7966 12.5473 24.0995 14.5337 22.8381Z" fill="#034EA2"/>
<path fill-rule="evenodd" clip-rule="evenodd" d="M15.9243 2.19092C8.34294 2.19092 2.21826 8.332 2.21826 15.9337C2.21826 23.5353 8.37605 29.7096 15.9574 29.7096C23.5388 29.7096 29.6634 23.5353 29.6634 15.9337C29.6634 8.332 23.5057 2.19092 15.9243 2.19092ZM18.8377 24.2656L15.6263 23.2034C15.6263 23.2034 6.68762 27.2864 6.68762 22.3403C6.68762 18.9544 12.6468 20.0166 12.6468 20.0166L13.4413 18.3901C13.4413 18.3901 7.05179 19.3527 7.05179 15.4357C7.05179 13.0125 9.40234 12.4814 9.40234 12.4814C9.40234 9.32785 14.1034 6.14112 14.1034 6.14112L19.4998 7.93366L20.3274 6.47308L20.9565 6.80503L17.8776 12.083C17.8776 12.083 26.1542 11.0872 26.1542 16.1992C26.1211 21.9088 18.8377 24.2656 18.8377 24.2656Z" fill="#034EA2"/>
<path d="M15.9573 32C7.15097 32 0 24.8299 0 16C0 7.17012 7.15097 0 15.9573 0C24.7636 0 31.9145 7.17012 31.9145 16C31.9145 24.8299 24.7636 32 15.9573 32ZM15.9573 1.22822C7.8131 1.22822 1.22494 7.86722 1.22494 16C1.22494 24.1328 7.84621 30.7718 15.9573 30.7718C24.0683 30.7718 30.6896 24.1328 30.6896 16C30.6896 7.86722 24.1014 1.22822 15.9573 1.22822Z" fill="#034EA2"/>
<path d="M38.3701 24.6306H41.4159V25.2613H39.1316V26.6555H41.3166V27.2862H39.1316V28.78H41.4159V29.4107H38.3701V24.6306Z" fill="#034EA2"/>
<path d="M42.7402 24.6306H43.4355L45.8853 28.1825H45.9184V24.6306H46.6468V29.4107H45.9516L43.5017 25.8588H43.4686V29.4107H42.7402V24.6306Z" fill="#034EA2"/>
<path d="M48.1035 24.6306H48.8319V28.78H51.05V29.4107H48.1035V24.6306Z" fill="#034EA2"/>
<path d="M52.2749 24.6306H53.0032V29.4107H52.2749V24.6306Z" fill="#034EA2"/>
<path d="M54.2944 26.9874C54.2944 25.4605 55.1552 24.531 56.5126 24.531C57.6382 24.531 58.3334 25.1617 58.532 26.058V26.1244H57.7706V26.0912C57.572 25.5269 57.1416 25.2281 56.5126 25.2281C55.5856 25.2281 55.0559 25.892 55.0559 27.0206C55.0559 28.1825 55.6187 28.8796 56.5457 28.8796C57.3071 28.8796 57.8699 28.3816 57.8699 27.6513V27.5518H56.6119V26.9542H58.5983V27.4522C58.5983 28.7468 57.8368 29.5103 56.5457 29.5103C55.1552 29.5103 54.2944 28.5476 54.2944 26.9874Z" fill="#034EA2"/>
<path d="M59.8892 24.6306H60.6175V26.6555H63.0674V24.6306H63.7957V29.4107H63.0674V27.2862H60.6175V29.4107H59.8892V24.6306Z" fill="#034EA2"/>
<path d="M66.4772 25.2613H65.0205V24.6306H68.6953V25.2613H67.2055V29.4107H66.4772V25.2613Z" fill="#034EA2"/>
<path d="M69.8545 24.6306H72.8672V25.2613H70.5828V26.6555H72.7679V27.2862H70.5828V28.78H72.8672V29.4107H69.8545V24.6306Z" fill="#034EA2"/>
<path d="M74.2241 24.6306H74.9194L77.3692 28.1825H77.4023V24.6306H78.1307V29.4107H77.4354L74.9856 25.8588H74.9525V29.4107H74.2241V24.6306Z" fill="#034EA2"/>
<path d="M82.6994 25.2613H81.2427V24.6306H84.9175V25.2613H83.4608V29.4107H82.7325L82.6994 25.2613Z" fill="#034EA2"/>
<path d="M86.0762 24.6306H86.8045V26.6555H89.2544V24.6306H89.9827V29.4107H89.2544V27.2862H86.8045V29.4107H86.0762V24.6306Z" fill="#034EA2"/>
<path d="M91.4727 24.6306H94.4853V25.2613H92.201V26.6555H94.3529V27.2862H92.201V28.78H94.4853V29.4107H91.4727V24.6306Z" fill="#034EA2"/>
<path d="M97.7959 24.6306H98.6567L100.213 28.448H100.246L101.802 24.6306H102.663V29.4107H102V25.892H101.967L100.511 29.4107H99.9478L98.4911 25.892H98.458V29.4107H97.7959V24.6306Z" fill="#034EA2"/>
<path d="M105.477 24.6306H106.271L107.993 29.4107H107.198L106.768 28.1161H104.947L104.517 29.4107H103.722L105.477 24.6306ZM105.146 27.5186H106.602L105.907 25.4273C105.874 25.4273 105.146 27.5186 105.146 27.5186Z" fill="#034EA2"/>
<path d="M109.085 24.6306H110.939C111.933 24.6306 112.529 25.1949 112.529 26.0912C112.529 26.7551 112.164 27.253 111.602 27.4522L112.661 29.4107H111.8L110.84 27.585H109.814V29.4107H109.085V24.6306ZM110.873 26.9543C111.436 26.9543 111.767 26.6555 111.767 26.0912C111.767 25.5601 111.403 25.2281 110.84 25.2281H109.814V26.9543H110.873Z" fill="#034EA2"/>
<path d="M113.852 24.6306H114.581V26.9211H114.614L116.534 24.6306H117.428L115.607 26.7551L117.56 29.4107H116.633L115.044 27.253L114.548 27.8173V29.4107H113.819L113.852 24.6306Z" fill="#034EA2"/>
<path d="M118.62 24.6306H121.633V25.2613H119.348V26.6555H121.5V27.2862H119.348V28.78H121.633V29.4107H118.62V24.6306Z" fill="#034EA2"/>
<path d="M124.182 25.2613H122.725V24.6306H126.4V25.2613H124.943V29.4107H124.215L124.182 25.2613Z" fill="#034EA2"/>
<path d="M38.3701 2.78833H49.4276V5.70949H41.9125V10.2572H48.7655V13.0456H41.9125V19.7178H38.3701V2.78833Z" fill="#034EA2"/>
<path d="M51.4141 8.03298L54.824 7.13672V19.7176H51.4141V8.03298Z" fill="#034EA2"/>
<path d="M56.8433 8.03298L60.2532 7.13672V19.7176H56.8433V8.03298Z" fill="#034EA2"/>
<path d="M75.5815 11.2198C75.5815 5.80901 78.6935 2.52271 83.6264 2.52271C87.6985 2.52271 90.4463 4.87955 91.0091 8.06627L91.0422 8.23225H87.4998L87.4667 8.09947C86.9039 6.47291 85.5466 5.51026 83.6595 5.51026C80.8786 5.51026 79.1901 7.56835 79.1901 11.1534C79.1901 14.8381 80.9779 16.9957 83.7919 16.9957C86.1094 16.9957 87.6654 15.6347 87.7647 13.5435V13.3111H83.8912V10.6555H91.1746V12.614C91.1746 17.2281 88.3937 20.0165 83.6926 20.0165C78.6935 20.0165 75.5815 16.7302 75.5815 11.2198Z" fill="#034EA2"/>
<path d="M92.7969 7.1369H96.2068V9.32777H96.273C96.6372 7.7676 97.6635 6.87134 99.1202 6.87134C99.4844 6.87134 99.8485 6.93773 100.113 7.00412V10.0249C99.8154 9.89208 99.3519 9.82569 98.8885 9.82569C97.2 9.82569 96.2399 10.8215 96.2399 12.6805V19.7178H92.83L92.7969 7.1369Z" fill="#034EA2"/>
<path d="M100.775 13.444C100.775 9.36097 103.225 6.90454 106.966 6.90454C110.707 6.90454 113.19 9.36097 113.19 13.4108V13.444C113.19 17.5601 110.774 19.9834 106.966 19.9834C103.159 19.9834 100.775 17.5269 100.775 13.444ZM109.714 13.444C109.714 10.9875 108.622 9.59334 106.966 9.59334C105.311 9.59334 104.252 10.9875 104.252 13.4108V13.444C104.252 15.9004 105.311 17.2946 106.999 17.2946C108.688 17.2946 109.714 15.9004 109.714 13.444Z" fill="#034EA2"/>
<path d="M114.747 15.2695V7.16992H118.157V14.5724C118.157 16.2322 118.918 17.1616 120.474 17.1616C122.03 17.1616 122.99 16.033 122.99 14.4064V7.16992H126.4V19.7508H122.99V17.2612H122.924C122.295 18.6886 121.004 19.9832 119.117 19.9832C116.303 19.9832 114.747 18.2239 114.747 15.2695Z" fill="#034EA2"/>
<path d="M73.8932 11.6182V19.7178H70.4832V12.3153C70.4832 10.6556 69.7218 9.72611 68.1658 9.72611C66.6098 9.72611 65.6497 10.8547 65.6497 12.4813V19.7178H62.2397V8.03316L65.6497 7.1369V9.59333H65.7159C66.3449 8.13275 67.6361 6.87134 69.5563 6.87134C72.3041 6.90453 73.8932 8.66387 73.8932 11.6182Z" fill="#034EA2"/>
<path d="M128.585 7.1369H131.995V9.32777H132.094C132.756 7.8008 134.147 6.87134 135.901 6.87134C139.08 6.87134 141.033 9.32777 141.033 13.4108C141.033 17.4937 139.08 19.9502 135.968 19.9502C134.18 19.9502 132.756 19.0207 132.094 17.5601H132.028V23.8008H128.618V7.1369H128.585ZM137.557 13.444C137.557 11.1203 136.464 9.72611 134.776 9.72611C133.087 9.72611 131.995 11.1535 131.995 13.444C131.995 15.7012 133.121 17.1286 134.776 17.1286C136.431 17.1286 137.557 15.7344 137.557 13.444Z" fill="#034EA2"/>
<path d="M60.2532 5.70949L56.8433 6.60576V3.6846L60.2532 2.78833V5.70949Z" fill="#50A4DB"/>
<path d="M54.824 5.70949L51.4141 6.60576V3.6846L54.824 2.78833V5.70949Z" fill="#50A4DB"/>
</g>
<defs>
<clipPath id="clip0_4538_596">
<rect width="141" height="32" fill="white"/>
</clipPath>
</defs>
</svg>
