<svg xmlns="http://www.w3.org/2000/svg" version="1.1" xmlns:xlink="http://www.w3.org/1999/xlink" width="512" height="512" x="0" y="0" viewBox="0 0 64 64" style="enable-background:new 0 0 512 512" xml:space="preserve" class=""><g><g data-name="Layer 28"><path d="M60 27.69h-6.37a1 1 0 0 0-1 1V29l-.75-3.55a6.76 6.76 0 0 0-6.57-4.95h-2.8v-2.28a1 1 0 0 0-1-1H36.9v-1.16a1 1 0 0 0-1-1h-7.8a1 1 0 0 0-1 1v1.16h-4.61a1 1 0 0 0-1 1v2.28h-2.8a6.76 6.76 0 0 0-6.58 5l-.73 3.5v-.31a1 1 0 0 0-1-1H4a1 1 0 0 0-1 1v4a1 1 0 0 0 .84 1l6.32 1-.19.92a7.49 7.49 0 0 0-4.11 6.06l-.53 6.16V56a3.37 3.37 0 0 0 3.36 3.36h5.84A3.37 3.37 0 0 0 17.89 56v-1.14h28.22V56a3.37 3.37 0 0 0 3.36 3.36h5.84A3.37 3.37 0 0 0 58.67 56v-8.2l-.53-6.07A7.49 7.49 0 0 0 54 35.67l-.19-.92 6.32-1a1 1 0 0 0 .84-1v-4a1 1 0 0 0-.97-1.06zm-50.62 4.9L5 31.87v-2.18h4.38zm31.13-13.37v1.28H36.9v-1.28zm-5.61-2.16v3.44h-5.8v-3.44zm-11.41 2.16h3.61v1.28h-3.61zm1.82 33.64v-2.1h13.38v2.1zm30.83-11 .53 6V56a1.36 1.36 0 0 1-1.36 1.36h-5.84A1.36 1.36 0 0 1 48.11 56v-1.14h2.27a1 1 0 1 0 0-2h-9.69v-3.1a1 1 0 0 0-1-1H24.31a1 1 0 0 0-1 1v3.1h-9.69a1 1 0 0 0 0 2h2.27V56a1.36 1.36 0 0 1-1.36 1.36H8.69A1.36 1.36 0 0 1 7.33 56v-8l.53-6.06a5.48 5.48 0 0 1 5.49-5h37.3a5.48 5.48 0 0 1 5.49 4.97zm-44-7L14.06 26a4.75 4.75 0 0 1 4.63-3.46h26.62a4.74 4.74 0 0 1 4.62 3.41l1.89 9zm46.82-3-4.37.72v-2.9H59z" fill="#3350b9" opacity="1" data-original="#000000"></path><path d="M41.75 43.09c-.93 2.13 1.21 4.52 3.38 4.46h6.45a3.74 3.74 0 1 0-.31-7.48l-7.71 1.55a2.5 2.5 0 0 0-1.81 1.47zm2.2.49 7.55-1.52c2.18-.05 2.2 3.46.08 3.49h-6.45a1.61 1.61 0 0 1-1.36-.76c-.29-.38-.41-1.02.23-1.21zM21 41.62l-7.71-1.55c-5-.27-5.21 7.34-.3 7.48h6.45c3.29.1 5.27-4.86 1.56-5.93zm0 2.9a1.69 1.69 0 0 1-1.51 1H13c-2.13 0-2.11-3.54.08-3.49l7.54 1.52a.63.63 0 0 1 .3.97zM32 10.07a1 1 0 0 0 1-1V5.69a1 1 0 1 0-2 0v3.38a1 1 0 0 0 1 1zM44.31 15a1 1 0 0 0 .71-.29l2.39-2.39A1 1 0 1 0 46 10.9l-2.4 2.39a1 1 0 0 0 0 1.42 1 1 0 0 0 .71.29zM19 14.71a1 1 0 0 0 .71.29 1 1 0 0 0 .71-.29 1 1 0 0 0 0-1.42L18 10.9a1 1 0 1 0-1.42 1.42z" fill="#3350b9" opacity="1" data-original="#000000"></path></g></g></svg>