<svg xmlns="http://www.w3.org/2000/svg" version="1.1" xmlns:xlink="http://www.w3.org/1999/xlink" width="512" height="512" x="0" y="0" viewBox="0 0 511 511.974" style="enable-background:new 0 0 512 512" xml:space="preserve"><g><path d="M456.438 511.973H8.488a7.99 7.99 0 0 1-8-8V296.055c0-4.426 3.574-8 8-8H32.48c4.422 0 8 3.574 8 8 0 4.422-3.578 8-8 8H16.488v191.918h431.95V304.055h-15.993c-4.422 0-8-3.578-8-8 0-4.426 3.578-8 8-8h23.993c4.425 0 8 3.574 8 8v207.918c0 4.425-3.575 8-8 8zm0 0" fill="#3350b9" opacity="1" data-original="#000000"></path><path d="M232.465 304.055c-4.426 0-8-3.578-8-8 0-22.067 17.941-40.016 40-40.016 4.422 0 8 3.574 8 8 0 4.422-3.578 8-8 8-13.235 0-24 10.774-24 24.016 0 4.422-3.578 8-8 8zm0 0" fill="#3350b9" opacity="1" data-original="#000000"></path><path d="M432.445 272.04h-167.98c-4.426 0-8-3.58-8-8 0-4.427 3.574-8 8-8h167.98c4.426 0 8 3.573 8 8 0 4.42-3.574 8-8 8zM232.465 511.973a7.99 7.99 0 0 1-8-8c0-22.055 17.941-40 40-40 4.422 0 8 3.578 8 8 0 4.425-3.578 8-8 8-13.235 0-24 10.77-24 24 0 4.425-3.578 8-8 8zm0 0" fill="#3350b9" opacity="1" data-original="#000000"></path><path d="M432.445 479.973h-167.98a7.99 7.99 0 0 1-8-8c0-4.422 3.574-8 8-8h167.98c4.426 0 8 3.578 8 8 0 4.425-3.574 8-8 8zm0 0" fill="#3350b9" opacity="1" data-original="#000000"></path><path d="M432.445 479.973c-4.422 0-8-3.575-8-8V264.039c0-4.426 3.578-8 8-8 4.426 0 8 3.574 8 8v207.934c0 4.425-3.574 8-8 8zM232.465 304.055c-4.426 0-8-3.578-8-8 0-13.243-10.77-24.016-24-24.016-4.426 0-8-3.578-8-8 0-4.426 3.574-8 8-8 22.055 0 40 17.95 40 40.016 0 4.422-3.578 8-8 8zm0 0" fill="#3350b9" opacity="1" data-original="#000000"></path><path d="M200.465 272.04H32.48c-4.425 0-8-3.58-8-8 0-4.427 3.575-8 8-8h167.985c4.422 0 8 3.573 8 8 0 4.42-3.578 8-8 8zM232.465 511.973a7.99 7.99 0 0 1-8-8c0-13.23-10.77-24-24-24a7.99 7.99 0 0 1-8-8c0-4.422 3.574-8 8-8 22.055 0 40 17.945 40 40 0 4.425-3.578 8-8 8zm0 0" fill="#3350b9" opacity="1" data-original="#000000"></path><path d="M200.465 479.973H32.48a7.99 7.99 0 0 1-8-8c0-4.422 3.575-8 8-8h167.985c4.422 0 8 3.578 8 8 0 4.425-3.578 8-8 8zm0 0" fill="#3350b9" opacity="1" data-original="#000000"></path><path d="M32.48 479.973a7.99 7.99 0 0 1-8-8V264.039c0-4.426 3.575-8 8-8 4.422 0 8 3.574 8 8v207.934c0 4.425-3.578 8-8 8zM232.465 511.973a7.99 7.99 0 0 1-8-8V296.055c0-4.426 3.574-8 8-8 4.422 0 8 3.574 8 8v207.918c0 4.425-3.578 8-8 8zM144.465 312.04H72.48c-4.425 0-8-3.58-8-8 0-4.427 3.575-8 8-8h71.985c4.422 0 8 3.573 8 8 0 4.42-3.578 8-8 8zM128.48 376.07h-56c-4.425 0-8-3.578-8-8 0-4.425 3.575-8 8-8h56c4.422 0 8 3.575 8 8 0 4.422-3.578 8-8 8zM192.465 376.07H160.48c-4.425 0-8-3.578-8-8 0-4.425 3.575-8 8-8h31.985c4.422 0 8 3.575 8 8 0 4.422-3.578 8-8 8zM192.465 344.055H104.48c-4.425 0-8-3.578-8-8 0-4.426 3.575-8 8-8h87.985c4.422 0 8 3.574 8 8 0 4.422-3.578 8-8 8zM80.48 344.055h-8c-4.425 0-8-3.578-8-8 0-4.426 3.575-8 8-8h8c4.422 0 8 3.574 8 8 0 4.422-3.578 8-8 8zM192.465 312.04h-16c-4.426 0-8-3.58-8-8 0-4.427 3.574-8 8-8h16c4.422 0 8 3.573 8 8 0 4.42-3.578 8-8 8zM152.465 408.086H72.48a7.99 7.99 0 0 1-8-8c0-4.426 3.575-8 8-8h79.985c4.422 0 8 3.574 8 8s-3.578 8-8 8zM192.465 408.086h-8a7.99 7.99 0 0 1-8-8c0-4.426 3.574-8 8-8h8c4.422 0 8 3.574 8 8s-3.578 8-8 8zM104.48 440.102h-32a7.99 7.99 0 0 1-8-8c0-4.422 3.575-8 8-8h32c4.422 0 8 3.578 8 8 0 4.425-3.578 8-8 8zM192.465 440.102H136.48a7.99 7.99 0 0 1-8-8c0-4.422 3.575-8 8-8h55.985c4.422 0 8 3.578 8 8 0 4.425-3.578 8-8 8zM392.582 311.965h-71.984c-4.422 0-8-3.574-8-8 0-4.422 3.578-8 8-8h71.984c4.426 0 8 3.578 8 8 0 4.426-3.582 8-8 8zM392.582 376h-56c-4.422 0-8-3.578-8-8 0-4.426 3.578-8 8-8h56c4.426 0 8 3.574 8 8 0 4.422-3.582 8-8 8zM304.582 376h-31.984c-4.422 0-8-3.578-8-8 0-4.426 3.578-8 8-8h31.984c4.426 0 8 3.574 8 8 0 4.422-3.582 8-8 8zM360.582 343.98h-87.984c-4.422 0-8-3.574-8-8 0-4.421 3.578-8 8-8h87.984c4.426 0 8 3.579 8 8 0 4.426-3.582 8-8 8zM392.582 343.98h-8c-4.422 0-8-3.574-8-8 0-4.421 3.578-8 8-8h8c4.426 0 8 3.579 8 8 0 4.426-3.582 8-8 8zM288.598 311.965h-16c-4.422 0-8-3.574-8-8 0-4.422 3.578-8 8-8h16c4.425 0 8 3.578 8 8 0 4.426-3.582 8-8 8zM392.582 408.016h-79.984c-4.422 0-8-3.579-8-8 0-4.426 3.578-8 8-8h79.984c4.426 0 8 3.574 8 8 0 4.421-3.582 8-8 8zM280.598 408.016h-8c-4.422 0-8-3.579-8-8 0-4.426 3.578-8 8-8h8c4.425 0 8 3.574 8 8 0 4.421-3.582 8-8 8zM392.582 440.031h-32c-4.422 0-8-3.578-8-8 0-4.426 3.578-8 8-8h32c4.426 0 8 3.574 8 8 0 4.422-3.582 8-8 8zM328.582 440.031h-55.984c-4.422 0-8-3.578-8-8 0-4.426 3.578-8 8-8h55.984c4.426 0 8 3.574 8 8 0 4.422-3.582 8-8 8zM232.582 232.047c-117.414 0-127.664-52.48-128.047-54.711-.734-4.356 2.192-8.488 6.55-9.227 4.313-.672 8.403 2.137 9.2 6.426.227.985 10.64 41.512 112.29 41.512 58.585 0 84.144-13.281 95.265-24.426 8.16-8.168 8.648-15.535 8.648-15.605a7.99 7.99 0 0 1 7.985-8.016h.015a7.994 7.994 0 0 1 8 7.98c0 1.395-.351 13.938-13.328 26.938-19.273 19.328-55.144 29.129-106.578 29.129zm0 0" fill="#3350b9" opacity="1" data-original="#000000"></path><path d="M344.496 184H112.422c-4.422 0-8-3.578-8-8 0-4.426 3.578-8 8-8h232.074c4.422 0 8 3.574 8 8 0 4.422-3.578 8-8 8zM344.496 151.965H112.422c-4.422 0-8-3.574-8-8 0-4.422 3.578-8 8-8h232.074c4.422 0 8 3.578 8 8 0 4.426-3.578 8-8 8zm0 0" fill="#3350b9" opacity="1" data-original="#000000"></path><path d="M344.496 184c-4.426 0-8-3.578-8-8v-32.035c0-4.422 3.574-8 8-8 4.422 0 8 3.578 8 8V176c0 4.422-3.578 8-8 8zM112.422 184c-4.422 0-8-3.578-8-8v-32.035c0-4.422 3.578-8 8-8 4.426 0 8 3.578 8 8V176c0 4.422-3.574 8-8 8zm0 0" fill="#3350b9" opacity="1" data-original="#000000"></path><path d="M344.656 152.04a7.99 7.99 0 0 1-5.648-2.33c-3.13-3.128-3.145-8.183-.024-11.32l39.871-40.038c3.137-3.114 8.184-3.145 11.32-.028 3.13 3.13 3.145 8.188.024 11.32l-39.87 40.043a8.034 8.034 0 0 1-5.673 2.352zm0 0" fill="#3350b9" opacity="1" data-original="#000000"></path><path d="M384.543 112a8 8 0 0 1-6.8-3.777l-39.848-64a8 8 0 0 1 2.558-11.016 8 8 0 0 1 11.02 2.559l39.847 64a7.998 7.998 0 0 1-2.562 11.015 7.906 7.906 0 0 1-4.215 1.219zm0 0" fill="#3350b9" opacity="1" data-original="#000000"></path><path d="M344.688 48a8.296 8.296 0 0 1-2.2-.305L230.352 15.687a8.012 8.012 0 0 1-5.504-9.89c1.214-4.254 5.687-6.664 9.886-5.504L346.88 32.301a8.012 8.012 0 0 1 5.504 9.89A8.02 8.02 0 0 1 344.687 48zM112.566 152.04a7.962 7.962 0 0 1-6.261-3.017L74.437 108.98c-2.75-3.46-2.175-8.496 1.274-11.238a7.984 7.984 0 0 1 11.238 1.274l31.867 40.039c2.75 3.465 2.176 8.496-1.273 11.238a7.98 7.98 0 0 1-4.977 1.746zm0 0" fill="#3350b9" opacity="1" data-original="#000000"></path><path d="M80.68 112a7.937 7.937 0 0 1-4.215-1.21 7.991 7.991 0 0 1-2.563-11.017l39.848-64c2.336-3.757 7.281-4.894 11.016-2.558a7.991 7.991 0 0 1 2.562 11.015l-39.848 64a8.001 8.001 0 0 1-6.8 3.77zm0 0" fill="#3350b9" opacity="1" data-original="#000000"></path><path d="M120.535 48c-3.48 0-6.68-2.29-7.687-5.809a8.005 8.005 0 0 1 5.504-9.89L230.488.293c4.207-1.168 8.672 1.242 9.887 5.504a8.005 8.005 0 0 1-5.504 9.89L122.734 47.696c-.734.2-1.464.305-2.199.305zM232.672 111.988c-17.649 0-32-14.351-32-32 0-17.644 14.351-32 32-32s32 14.356 32 32c0 17.649-14.352 32-32 32zm0-48c-8.824 0-16 7.18-16 16 0 8.825 7.176 16 16 16s16-7.175 16-16c0-8.82-7.176-16-16-16zm0 0" fill="#3350b9" opacity="1" data-original="#000000"></path><path d="M144.68 87.988a7.993 7.993 0 0 1-6.856-3.863l-24.137-39.992c-2.28-3.781-1.066-8.703 2.72-10.985 3.777-2.293 8.687-1.07 10.984 2.723l24.136 39.992c2.282 3.782 1.063 8.703-2.718 10.985a8.018 8.018 0 0 1-4.13 1.14zM320.598 87.988a7.95 7.95 0 0 1-4.125-1.148c-3.786-2.281-5-7.203-2.723-10.985l24.137-39.992c2.289-3.793 7.199-5.015 10.984-2.722 3.785 2.28 5 7.203 2.719 10.984l-24.137 39.992a7.989 7.989 0 0 1-6.855 3.871zm0 0" fill="#3350b9" opacity="1" data-original="#000000"></path></g></svg>