<svg xmlns="http://www.w3.org/2000/svg" version="1.1" xmlns:xlink="http://www.w3.org/1999/xlink" width="512" height="512" x="0" y="0" viewBox="0 0 62 62" style="enable-background:new 0 0 512 512" xml:space="preserve" class=""><g><path d="m16.447 33.895 1.105-.553c.478-.239.834-.65 1.003-1.157s.131-1.049-.108-1.527L18 29.764V28h-2v2c0 .155.036.309.105.447l.553 1.105-1.105.553zM17 37c-1.103 0-2-.897-2-2h-2c0 2.206 1.794 4 4 4s4-1.794 4-4h-2c0 1.103-.897 2-2 2z" fill="#3350b9" opacity="1" data-original="#000000" class=""></path><circle cx="12" cy="28" r="1" fill="#3350b9" opacity="1" data-original="#000000" class=""></circle><circle cx="22" cy="28" r="1" fill="#3350b9" opacity="1" data-original="#000000" class=""></circle><path d="M20 14c0-1.654-1.346-3-3-3s-3 1.346-3 3 1.346 3 3 3 3-1.346 3-3zm-3 1a1.001 1.001 0 0 1 0-2 1.001 1.001 0 0 1 0 2zM50 16.586l-6-6-6 6V24h12zM46.586 16h-5.172L44 13.414zM40 22v-4h8v4z" fill="#3350b9" opacity="1" data-original="#000000" class=""></path><path d="M62 18c0-9.925-8.075-18-18-18a17.947 17.947 0 0 0-16.104 9.951A14.901 14.901 0 0 0 19 7h-4C6.729 7 0 13.729 0 22c0 1.302.839 2.402 2 2.816V25c0 1.298.238 2.561.681 3.771A3.97 3.97 0 0 0 2 31c0 2.206 1.794 4 4 4h.314a10.987 10.987 0 0 0 6.353 7.517l.333.142v1.545l-2.146.496-.268-.892a2.996 2.996 0 0 0-3.987-1.923l-1.896.758-1.743-5.924-1.918.564 2.995 10.183C1.505 49.544 0 52.658 0 55.955V62h34v-6.045a10.95 10.95 0 0 0-8.527-10.718L21 44.205l.001-1.545.331-.143A10.984 10.984 0 0 0 27.686 35H28c2.075 0 3.765-1.593 3.961-3.617C35.237 34.346 39.473 36 44 36c9.925 0 18-8.075 18-18zM15 9h4c7.168 0 13 5.832 13 13 0 .551-.448 1-1 1h-1.31a9.759 9.759 0 0 0-9.014-6h-7.352a9.758 9.758 0 0 0-9.014 6H3c-.552 0-1-.449-1-1C2 14.832 7.832 9 15 9zm19.849 1.263 1.372 1.372 1.414-1.414-1.37-1.37A12.038 12.038 0 0 1 43 6.044V8h2V6.051a11.942 11.942 0 0 1 6.741 2.795l-1.376 1.376 1.414 1.414 1.376-1.376a11.939 11.939 0 0 1 2.795 6.741H54v2h1.949a11.942 11.942 0 0 1-2.795 6.741l-1.376-1.376-1.414 1.414 1.376 1.376a11.939 11.939 0 0 1-6.741 2.795V28h-2v1.953a12.06 12.06 0 0 1-6.742-2.797l1.378-1.378-1.414-1.414-1.378 1.378a11.967 11.967 0 0 1-1.391-2.025A2.972 2.972 0 0 0 34 22a14.89 14.89 0 0 0-1.656-6.819 11.887 11.887 0 0 1 2.505-4.918zM6 27a3.96 3.96 0 0 0-1.67.377A8.914 8.914 0 0 1 4 25h2zm.542-4a7.754 7.754 0 0 1 6.783-4h7.352a7.754 7.754 0 0 1 6.783 4zM28 25h2c0 .811-.117 1.605-.33 2.377A3.96 3.96 0 0 0 28 27zM6 33c-1.103 0-2-.897-2-2s.897-2 2-2v3.407c0 .199.011.396.022.593zm7.685 13.099 2.068 2.068-1.996 3.493a17.246 17.246 0 0 1-1.409-1.984l-.917-3.056zM17 50.015l1.829 3.201a17.188 17.188 0 0 1-1.827 1.545 17.44 17.44 0 0 1-1.826-1.553zm-9.659-6.274c.264-.106.551-.096.807.028s.441.341.522.613l1.847 6.152a.998.998 0 0 1-.586 1.217l-1.261.504a.988.988 0 0 1-.809-.029.99.99 0 0 1-.522-.617l-2.07-7.04zM2 55.955c0-2.406.981-4.692 2.66-6.366l.76 2.584a3.005 3.005 0 0 0 2.879 2.153c.378 0 .756-.071 1.113-.214l1.261-.504c.532-.213.968-.56 1.288-.986a19.253 19.253 0 0 0 4.019 3.877l.02.015V60H2zm30 0V60H18v-3.485l.021-.015c3.224-2.303 5.672-5.589 6.995-9.316l.008.002A8.958 8.958 0 0 1 32 55.955zm-8.943-9.223a17.448 17.448 0 0 1-2.811 4.932l-1.998-3.497 2.068-2.068zm-2.513-6.053-.332.143A2.003 2.003 0 0 0 19 42.66v1.927l-2 2-2-2v-1.929a2 2 0 0 0-1.212-1.835l-.333-.143A8.992 8.992 0 0 1 8 32.408V25h18v7.406a8.994 8.994 0 0 1-5.456 8.273zM28 33h-.022c.011-.197.022-.394.022-.593V29c1.103 0 2 .897 2 2s-.897 2-2 2zm16 1c-4.884 0-9.381-2.177-12.437-5.965a10.91 10.91 0 0 0 .427-2.852C34.5 29.361 39.072 32 44 32c7.72 0 14-6.28 14-14S51.72 4 44 4c-5.823 0-11.002 3.663-13.056 8.963a15.022 15.022 0 0 0-1.462-1.673A15.948 15.948 0 0 1 44 2c8.822 0 16 7.178 16 16s-7.178 16-16 16z" fill="#3350b9" opacity="1" data-original="#000000" class=""></path><path d="M44 49.724A3.727 3.727 0 0 0 40.276 46h-.553A3.727 3.727 0 0 0 36 49.724V50h2v-.276c0-.951.773-1.724 1.724-1.724h.553a1.725 1.725 0 0 1 1.102 3.049l-5.02 4.183c-.227.19-.359.471-.359.768v1a1 1 0 0 0 1 1h6v-2h-4.438l4.098-3.415A3.713 3.713 0 0 0 44 49.724zM51 47a1 1 0 0 0-1.848-.529l-5 8A1 1 0 0 0 45 56h4v2h2v-2h2v-2h-2zm-2 7h-2.195L49 50.487zM58 52c-.352 0-.686.072-1 .184V48h-2v10h2v-3a1.001 1.001 0 0 1 2 0v3h2v-3c0-1.654-1.346-3-3-3z" fill="#3350b9" opacity="1" data-original="#000000" class=""></path></g></svg>