<svg xmlns="http://www.w3.org/2000/svg" version="1.1" xmlns:xlink="http://www.w3.org/1999/xlink" width="512" height="512" x="0" y="0" viewBox="0 0 64 64" style="enable-background:new 0 0 512 512" xml:space="preserve" class=""><g><circle cx="16" cy="24" r="1" fill="#3350b9" opacity="1" data-original="#000000" class=""></circle><circle cx="24" cy="24" r="1" fill="#3350b9" opacity="1" data-original="#000000" class=""></circle><path d="M27.487 33H43.08c.488 3.386 3.401 6 6.92 6s6.432-2.614 6.92-6H61c1.103 0 2-.897 2-2V20c0-1.654-1.346-3-3-3h-5.5l-5.101-6.801A3.015 3.015 0 0 0 47 9h-2.219l-.621-2.484A1.997 1.997 0 0 0 42.219 5h-4.438c-.777 0-1.463.448-1.793 1.124a3.037 3.037 0 0 0-.9-.566l-1.62-.647a9.935 9.935 0 0 1-3.358-2.215l-.231-.23A4.97 4.97 0 0 0 26.343 1H13.657a4.972 4.972 0 0 0-3.535 1.464l-.232.232A9.953 9.953 0 0 1 6.533 4.91l-1.622.648A3.028 3.028 0 0 0 3 8.382c0 .603.176 1.186.511 1.688L5 12.303v5.535c0 1.692.22 3.377.635 5.017A3.968 3.968 0 0 0 5 25c0 2.206 1.794 4 4 4h1.054a14.342 14.342 0 0 0 5.645 6.738L15.279 37H4c-1.654 0-3 1.346-3 3v2c0 .558.163 1.075.43 1.523A4.385 4.385 0 0 0 1 45.414V55c0 1.103.897 2 2 2 0 3.309 2.691 6 6 6h21c.701 0 1.339-.252 1.85-.657A8.03 8.03 0 0 0 35 63c4.411 0 8-3.589 8-8a7.962 7.962 0 0 0-2.231-5.527l1.352-1.352A2.98 2.98 0 0 0 42.818 47h4.364c.147.416.376.8.697 1.121l1.352 1.352A7.962 7.962 0 0 0 47 55c0 4.411 3.589 8 8 8s8-3.589 8-8c0-4.325-3.452-7.851-7.745-7.987l-3.134-3.134a2.976 2.976 0 0 0-1.262-.74A2.994 2.994 0 0 0 48 41h-6a2.994 2.994 0 0 0-2.859 2.139 2.91 2.91 0 0 0-.459.179c.197-.4.318-.843.318-1.318v-2c0-1.654-1.346-3-3-3H24.721l-.42-1.262A14.524 14.524 0 0 0 27.487 33zM7.346 21.368A18.495 18.495 0 0 1 7 17.838V17h2v4c-.591 0-1.148.137-1.654.368zM17 8V7h6v1c0 1.654-1.346 3-3 3s-3-1.346-3-3zm16 5v2H7v-2zm12.111 14H34.444A3.959 3.959 0 0 0 35 25c0-.791-.238-1.524-.635-2.145a20.6 20.6 0 0 0 .38-1.855H49v4.08A6.974 6.974 0 0 0 45.111 27zM31 17h2v.838c0 1.186-.12 2.368-.346 3.53A3.968 3.968 0 0 0 31 21zm0 6.566V23c1.103 0 2 .897 2 2s-.897 2-2 2h-.414c.269-1.108.414-2.258.414-3.434zM34.961 19c.022-.387.039-.774.039-1.162V15h10.465l2.667 4zm-6.145-2A2.996 2.996 0 0 1 26 19H14a2.996 2.996 0 0 1-2.816-2zm1.13 12h13.739a6.937 6.937 0 0 0-.605 2H28.941c.385-.64.724-1.306 1.005-2zM50 37c-2.757 0-5-2.243-5-5s2.243-5 5-5 5 2.243 5 5-2.243 5-5 5zm6.92-6a6.937 6.937 0 0 0-.605-2H61v2zM59 26c0-.552.449-1 1-1h1v2h-1c-.551 0-1-.448-1-1zM47.8 11.399 53.5 19H60c.551 0 1 .448 1 1v3h-1c-1.654 0-3 1.346-3 3 0 .352.072.686.184 1h-2.295A6.977 6.977 0 0 0 51 25.08v-5.383L46.535 13H35v-.697L35.869 11H47c.313 0 .612.149.8.399zM42.219 7l.5 2h-5.438l.5-2zm-36.565.415 1.621-.647a11.958 11.958 0 0 0 4.028-2.656l.232-.232A3.017 3.017 0 0 1 13.657 3h12.687c.79 0 1.563.32 2.122.88l.231.23a11.94 11.94 0 0 0 4.029 2.657l1.62.647a1.04 1.04 0 0 1 .479 1.546L33.465 11h-9.49A4.954 4.954 0 0 0 25 8V7c0-1.103-.897-2-2-2h-6c-1.103 0-2 .897-2 2v1c0 1.13.391 2.162 1.026 3h-9.49l-1.36-2.039a1.043 1.043 0 0 1 .478-1.546zM9 27c-1.103 0-2-.897-2-2s.897-2 2-2v.566c0 1.176.145 2.326.414 3.434zm13.476 9.59.38 1.14L20 40.586l-2.856-2.856.38-1.14c.796.261 1.628.41 2.476.41s1.68-.149 2.476-.41zM31 43v-4h2v4zm-2 0h-2.389l1.143-4H29zm-3.396 3.528L26.04 45H36c.319 0 .621-.064.91-.156l.001.003-2.166 2.166c-3.657.116-6.697 2.693-7.518 6.13a2.602 2.602 0 0 0-2.016.133L21.764 55H21V43.766zm13.698-1.241a3.004 3.004 0 0 0 1.411 1.411l-.006.009-1.501 1.501a7.89 7.89 0 0 0-1.95-.878l2.036-2.036.01-.007zM15.586 39l2.801 2.801-2.784 1.67L14.326 39zM7 43v-4h2v4zm4-4h1.246l1.143 4H11zm-8 1c0-.552.449-1 1-1h1v4H4c-.551 0-1-.448-1-1zm0 15v-9.586c0-.196.03-.388.076-.575.293.096.6.161.924.161h9.96l.437 1.528L19 43.766V55h-8v-8H9v8zm28 5c0 .552-.449 1-1 1H9c-2.206 0-4-1.794-4-4h17.236l3.87-1.935c.392-.197.894.117.894.553V57h3c.551 0 1 .448 1 1zm4 1a6.01 6.01 0 0 1-2.068-.374c.043-.202.068-.411.068-.626v-1.556A3.959 3.959 0 0 0 35 59a3.96 3.96 0 0 0 2.396-.817c.365.493.945.817 1.604.817.173 0 .339-.03.506-.051A5.981 5.981 0 0 1 35 61zm0-4c-1.103 0-2-.897-2-2s.897-2 2-2 2 .897 2 2-.897 2-2 2zm4 0v-2c0-2.206-1.794-4-4-4s-4 1.794-4 4c0 .065.016.126.019.19A2.973 2.973 0 0 0 30 55h-1c0-3.309 2.691-6 6-6s6 2.691 6 6c0 1.103-.897 2-2 2zm22-2c0 1.103-.897 2-2 2v-2c0-2.206-1.794-4-4-4s-4 1.794-4 4 1.794 4 4 4a3.96 3.96 0 0 0 2.396-.817c.365.493.945.817 1.604.817.173 0 .339-.03.506-.051A5.981 5.981 0 0 1 55 61c-3.309 0-6-2.691-6-6s2.691-6 6-6 6 2.691 6 6zm-6 2c-1.103 0-2-.897-2-2s.897-2 2-2 2 .897 2 2-.897 2-2 2zm-2.257-9.671a7.981 7.981 0 0 0-1.95.878l-1.501-1.501-.006-.009a3.004 3.004 0 0 0 1.411-1.411l.009.006zM42 43h6a1.001 1.001 0 0 1 0 2h-6a1.001 1.001 0 0 1 0-2zm-5-3v2c0 .552-.449 1-1 1h-1v-4h1c.551 0 1 .448 1 1zm-11.326-1-1.278 4.472-2.784-1.67L24.414 39zm-2.508-4.907c-1.9 1.188-4.432 1.188-6.332 0A12.343 12.343 0 0 1 11 23.566v-3.592A4.948 4.948 0 0 0 14 21h12c1.13 0 2.162-.391 3-1.026v3.592c0 4.308-2.181 8.244-5.834 10.527z" fill="#3350b9" opacity="1" data-original="#000000" class=""></path><path d="M22 29.764c-.381.762-1.147 1.236-2 1.236s-1.619-.474-2-1.236l-.105-.211-1.789.895.105.211C16.933 32.103 18.385 33 20 33s3.067-.897 3.789-2.342l.105-.211-1.789-.895zM50 29c-1.654 0-3 1.346-3 3s1.346 3 3 3 3-1.346 3-3-1.346-3-3-3zm0 4a1.001 1.001 0 0 1 0-2 1.001 1.001 0 0 1 0 2z" fill="#3350b9" opacity="1" data-original="#000000" class=""></path></g></svg>